  0
SECTION
  2
BLOCKS
  0
ENDSEC
  0
SECTION
  2
ENTITIES
  0
LINE
  8
0
 10
-12.1683
 20
-123.062
 11
-2.9375
 21
-123.062
  0
LINE
  8
0
 10
-2.9375
 20
-123.062
 11
-2.9375
 21
-113.832
  0
LINE
  8
0
 10
-2.9375
 20
-113.832
 11
0.0624847
 21
-113.832
  0
LINE
  8
0
 10
0.0624847
 20
-113.832
 11
0.0624847
 21
-104.476
  0
LINE
  8
0
 10
0.0624847
 20
-104.476
 11
-2.9375
 21
-104.476
  0
LINE
  8
0
 10
-2.9375
 20
-104.476
 11
-2.9375
 21
-95.3702
  0
LINE
  8
0
 10
-2.9375
 20
-95.3702
 11
0.0624847
 21
-95.3702
  0
LINE
  8
0
 10
0.0624847
 20
-95.3702
 11
0.0624847
 21
-86.0144
  0
LINE
  8
0
 10
0.0624847
 20
-86.0144
 11
-2.9375
 21
-86.0144
  0
LINE
  8
0
 10
-2.9375
 20
-86.0144
 11
-2.9375
 21
-76.9086
  0
LINE
  8
0
 10
-2.9375
 20
-76.9086
 11
0.0624847
 21
-76.9086
  0
LINE
  8
0
 10
0.0624847
 20
-76.9086
 11
0.0624847
 21
-67.5529
  0
LINE
  8
0
 10
0.0624847
 20
-67.5529
 11
-2.9375
 21
-67.5529
  0
LINE
  8
0
 10
-2.9375
 20
-67.5529
 11
-2.9375
 21
-58.4471
  0
LINE
  8
0
 10
-2.9375
 20
-58.4471
 11
0.0624847
 21
-58.4471
  0
LINE
  8
0
 10
0.0624847
 20
-58.4471
 11
0.0624847
 21
-49.0913
  0
LINE
  8
0
 10
0.0624847
 20
-49.0913
 11
-2.9375
 21
-49.0913
  0
LINE
  8
0
 10
-2.9375
 20
-49.0913
 11
-2.9375
 21
-39.9856
  0
LINE
  8
0
 10
-2.9375
 20
-39.9856
 11
0.0624847
 21
-39.9856
  0
LINE
  8
0
 10
0.0624847
 20
-39.9856
 11
0.0624847
 21
-30.6298
  0
LINE
  8
0
 10
0.0624847
 20
-30.6298
 11
-2.9375
 21
-30.6298
  0
LINE
  8
0
 10
-2.9375
 20
-30.6298
 11
-2.9375
 21
-21.524
  0
LINE
  8
0
 10
-2.9375
 20
-21.524
 11
0.0624847
 21
-21.524
  0
LINE
  8
0
 10
0.0624847
 20
-21.524
 11
0.0624847
 21
-12.1683
  0
LINE
  8
0
 10
0.0624847
 20
-12.1683
 11
-2.9375
 21
-12.1683
  0
LINE
  8
0
 10
-2.9375
 20
-12.1683
 11
-2.9375
 21
-2.93748
  0
LINE
  8
0
 10
-2.9375
 20
-2.93748
 11
-12.1683
 21
-2.93748
  0
LINE
  8
0
 10
-12.1683
 20
-2.93748
 11
-12.1683
 21
0.0625
  0
LINE
  8
0
 10
-12.1683
 20
0.0625
 11
-21.524
 21
0.0625
  0
LINE
  8
0
 10
-21.524
 20
0.0625
 11
-21.524
 21
-2.93748
  0
LINE
  8
0
 10
-21.524
 20
-2.93748
 11
-30.6298
 21
-2.93748
  0
LINE
  8
0
 10
-30.6298
 20
-2.93748
 11
-30.6298
 21
0.0625
  0
LINE
  8
0
 10
-30.6298
 20
0.0625
 11
-39.9856
 21
0.0625
  0
LINE
  8
0
 10
-39.9856
 20
0.0625
 11
-39.9856
 21
-2.93748
  0
LINE
  8
0
 10
-39.9856
 20
-2.93748
 11
-49.0914
 21
-2.93748
  0
LINE
  8
0
 10
-49.0914
 20
-2.93748
 11
-49.0914
 21
0.0625
  0
LINE
  8
0
 10
-49.0914
 20
0.0625
 11
-58.4471
 21
0.0625
  0
LINE
  8
0
 10
-58.4471
 20
0.0625
 11
-58.4471
 21
-2.93748
  0
LINE
  8
0
 10
-58.4471
 20
-2.93748
 11
-67.5529
 21
-2.93748
  0
LINE
  8
0
 10
-67.5529
 20
-2.93748
 11
-67.5529
 21
0.0625
  0
LINE
  8
0
 10
-67.5529
 20
0.0625
 11
-76.9087
 21
0.0625
  0
LINE
  8
0
 10
-76.9087
 20
0.0625
 11
-76.9087
 21
-2.93748
  0
LINE
  8
0
 10
-76.9087
 20
-2.93748
 11
-86.0144
 21
-2.93748
  0
LINE
  8
0
 10
-86.0144
 20
-2.93748
 11
-86.0144
 21
0.0625
  0
LINE
  8
0
 10
-86.0144
 20
0.0625
 11
-95.3702
 21
0.0625
  0
LINE
  8
0
 10
-95.3702
 20
0.0625
 11
-95.3702
 21
-2.93748
  0
LINE
  8
0
 10
-95.3702
 20
-2.93748
 11
-104.476
 21
-2.93748
  0
LINE
  8
0
 10
-104.476
 20
-2.93748
 11
-104.476
 21
0.0625
  0
LINE
  8
0
 10
-104.476
 20
0.0625
 11
-113.832
 21
0.0625
  0
LINE
  8
0
 10
-113.832
 20
0.0625
 11
-113.832
 21
-2.93748
  0
LINE
  8
0
 10
-113.832
 20
-2.93748
 11
-123.062
 21
-2.93748
  0
LINE
  8
0
 10
-123.062
 20
-2.93748
 11
-123.062
 21
-12.1683
  0
LINE
  8
0
 10
-123.062
 20
-12.1683
 11
-126.062
 21
-12.1683
  0
LINE
  8
0
 10
-126.062
 20
-12.1683
 11
-126.062
 21
-21.524
  0
LINE
  8
0
 10
-126.062
 20
-21.524
 11
-123.062
 21
-21.524
  0
LINE
  8
0
 10
-123.062
 20
-21.524
 11
-123.062
 21
-30.6298
  0
LINE
  8
0
 10
-123.062
 20
-30.6298
 11
-126.062
 21
-30.6298
  0
LINE
  8
0
 10
-126.062
 20
-30.6298
 11
-126.062
 21
-39.9856
  0
LINE
  8
0
 10
-126.062
 20
-39.9856
 11
-123.062
 21
-39.9856
  0
LINE
  8
0
 10
-123.062
 20
-39.9856
 11
-123.062
 21
-49.0913
  0
LINE
  8
0
 10
-123.062
 20
-49.0913
 11
-126.062
 21
-49.0913
  0
LINE
  8
0
 10
-126.062
 20
-49.0913
 11
-126.062
 21
-58.4471
  0
LINE
  8
0
 10
-126.062
 20
-58.4471
 11
-123.062
 21
-58.4471
  0
LINE
  8
0
 10
-123.062
 20
-58.4471
 11
-123.062
 21
-67.5529
  0
LINE
  8
0
 10
-123.062
 20
-67.5529
 11
-126.062
 21
-67.5529
  0
LINE
  8
0
 10
-126.062
 20
-67.5529
 11
-126.062
 21
-76.9086
  0
LINE
  8
0
 10
-126.062
 20
-76.9086
 11
-123.062
 21
-76.9086
  0
LINE
  8
0
 10
-123.062
 20
-76.9086
 11
-123.062
 21
-86.0144
  0
LINE
  8
0
 10
-123.062
 20
-86.0144
 11
-126.062
 21
-86.0144
  0
LINE
  8
0
 10
-126.062
 20
-86.0144
 11
-126.062
 21
-95.3702
  0
LINE
  8
0
 10
-126.062
 20
-95.3702
 11
-123.062
 21
-95.3702
  0
LINE
  8
0
 10
-123.062
 20
-95.3702
 11
-123.062
 21
-104.476
  0
LINE
  8
0
 10
-123.062
 20
-104.476
 11
-126.062
 21
-104.476
  0
LINE
  8
0
 10
-126.062
 20
-104.476
 11
-126.062
 21
-113.832
  0
LINE
  8
0
 10
-126.062
 20
-113.832
 11
-123.062
 21
-113.832
  0
LINE
  8
0
 10
-123.062
 20
-113.832
 11
-123.062
 21
-123.062
  0
LINE
  8
0
 10
-123.062
 20
-123.062
 11
-113.832
 21
-123.062
  0
LINE
  8
0
 10
-113.832
 20
-123.062
 11
-113.832
 21
-126.062
  0
LINE
  8
0
 10
-113.832
 20
-126.062
 11
-104.476
 21
-126.062
  0
LINE
  8
0
 10
-104.476
 20
-126.062
 11
-104.476
 21
-123.062
  0
LINE
  8
0
 10
-104.476
 20
-123.062
 11
-95.3702
 21
-123.062
  0
LINE
  8
0
 10
-95.3702
 20
-123.062
 11
-95.3702
 21
-126.062
  0
LINE
  8
0
 10
-95.3702
 20
-126.062
 11
-86.0144
 21
-126.062
  0
LINE
  8
0
 10
-86.0144
 20
-126.062
 11
-86.0144
 21
-123.062
  0
LINE
  8
0
 10
-86.0144
 20
-123.062
 11
-76.9086
 21
-123.062
  0
LINE
  8
0
 10
-76.9086
 20
-123.062
 11
-76.9086
 21
-126.062
  0
LINE
  8
0
 10
-76.9086
 20
-126.062
 11
-67.5529
 21
-126.062
  0
LINE
  8
0
 10
-67.5529
 20
-126.062
 11
-67.5529
 21
-123.062
  0
LINE
  8
0
 10
-67.5529
 20
-123.062
 11
-58.4471
 21
-123.062
  0
LINE
  8
0
 10
-58.4471
 20
-123.062
 11
-58.4471
 21
-126.062
  0
LINE
  8
0
 10
-58.4471
 20
-126.062
 11
-49.0913
 21
-126.062
  0
LINE
  8
0
 10
-49.0913
 20
-126.062
 11
-49.0913
 21
-123.062
  0
LINE
  8
0
 10
-49.0913
 20
-123.062
 11
-39.9856
 21
-123.062
  0
LINE
  8
0
 10
-39.9856
 20
-123.062
 11
-39.9856
 21
-126.062
  0
LINE
  8
0
 10
-39.9856
 20
-126.062
 11
-30.6298
 21
-126.062
  0
LINE
  8
0
 10
-30.6298
 20
-126.062
 11
-30.6298
 21
-123.062
  0
LINE
  8
0
 10
-30.6298
 20
-123.062
 11
-21.524
 21
-123.062
  0
LINE
  8
0
 10
-21.524
 20
-123.062
 11
-21.524
 21
-126.062
  0
LINE
  8
0
 10
-21.524
 20
-126.062
 11
-12.1683
 21
-126.062
  0
LINE
  8
0
 10
-12.1683
 20
-126.062
 11
-12.1683
 21
-123.062
  0
LINE
  8
0
 10
-49.0913
 20
-250.188
 11
-39.9856
 21
-250.188
  0
LINE
  8
0
 10
-39.9856
 20
-250.188
 11
-39.9856
 21
-253.188
  0
LINE
  8
0
 10
-39.9856
 20
-253.188
 11
-30.6298
 21
-253.188
  0
LINE
  8
0
 10
-30.6298
 20
-253.188
 11
-30.6298
 21
-250.188
  0
LINE
  8
0
 10
-30.6298
 20
-250.188
 11
-21.524
 21
-250.188
  0
LINE
  8
0
 10
-21.524
 20
-250.188
 11
-21.524
 21
-253.188
  0
LINE
  8
0
 10
-21.524
 20
-253.188
 11
-12.1683
 21
-253.188
  0
LINE
  8
0
 10
-12.1683
 20
-253.188
 11
-12.1683
 21
-250.188
  0
LINE
  8
0
 10
-12.1683
 20
-250.188
 11
-2.9375
 21
-250.188
  0
LINE
  8
0
 10
-2.9375
 20
-250.188
 11
-2.9375
 21
-240.957
  0
LINE
  8
0
 10
-2.9375
 20
-240.957
 11
0.0624847
 21
-240.957
  0
LINE
  8
0
 10
0.0624847
 20
-240.957
 11
0.0624847
 21
-231.601
  0
LINE
  8
0
 10
0.0624847
 20
-231.601
 11
-2.9375
 21
-231.601
  0
LINE
  8
0
 10
-2.9375
 20
-231.601
 11
-2.9375
 21
-222.495
  0
LINE
  8
0
 10
-2.9375
 20
-222.495
 11
0.0624847
 21
-222.495
  0
LINE
  8
0
 10
0.0624847
 20
-222.495
 11
0.0624847
 21
-213.139
  0
LINE
  8
0
 10
0.0624847
 20
-213.139
 11
-2.9375
 21
-213.139
  0
LINE
  8
0
 10
-2.9375
 20
-213.139
 11
-2.9375
 21
-204.034
  0
LINE
  8
0
 10
-2.9375
 20
-204.034
 11
0.0624847
 21
-204.034
  0
LINE
  8
0
 10
0.0624847
 20
-204.034
 11
0.0624847
 21
-194.678
  0
LINE
  8
0
 10
0.0624847
 20
-194.678
 11
-2.9375
 21
-194.678
  0
LINE
  8
0
 10
-2.9375
 20
-194.678
 11
-2.9375
 21
-185.572
  0
LINE
  8
0
 10
-2.9375
 20
-185.572
 11
0.0624847
 21
-185.572
  0
LINE
  8
0
 10
0.0624847
 20
-185.572
 11
0.0624847
 21
-176.216
  0
LINE
  8
0
 10
0.0624847
 20
-176.216
 11
-2.9375
 21
-176.216
  0
LINE
  8
0
 10
-2.9375
 20
-176.216
 11
-2.9375
 21
-167.111
  0
LINE
  8
0
 10
-2.9375
 20
-167.111
 11
0.0624847
 21
-167.111
  0
LINE
  8
0
 10
0.0624847
 20
-167.111
 11
0.0624847
 21
-157.755
  0
LINE
  8
0
 10
0.0624847
 20
-157.755
 11
-2.9375
 21
-157.755
  0
LINE
  8
0
 10
-2.9375
 20
-157.755
 11
-2.9375
 21
-148.649
  0
LINE
  8
0
 10
-2.9375
 20
-148.649
 11
0.0624847
 21
-148.649
  0
LINE
  8
0
 10
0.0624847
 20
-148.649
 11
0.0624847
 21
-139.293
  0
LINE
  8
0
 10
0.0624847
 20
-139.293
 11
-2.9375
 21
-139.293
  0
LINE
  8
0
 10
-2.9375
 20
-139.293
 11
-2.9375
 21
-130.062
  0
LINE
  8
0
 10
-2.9375
 20
-130.062
 11
-12.1683
 21
-130.062
  0
LINE
  8
0
 10
-12.1683
 20
-130.062
 11
-12.1683
 21
-127.062
  0
LINE
  8
0
 10
-12.1683
 20
-127.062
 11
-21.524
 21
-127.062
  0
LINE
  8
0
 10
-21.524
 20
-127.062
 11
-21.524
 21
-130.062
  0
LINE
  8
0
 10
-21.524
 20
-130.062
 11
-30.6298
 21
-130.062
  0
LINE
  8
0
 10
-30.6298
 20
-130.062
 11
-30.6298
 21
-127.062
  0
LINE
  8
0
 10
-30.6298
 20
-127.062
 11
-39.9856
 21
-127.062
  0
LINE
  8
0
 10
-39.9856
 20
-127.062
 11
-39.9856
 21
-130.062
  0
LINE
  8
0
 10
-39.9856
 20
-130.062
 11
-49.0914
 21
-130.062
  0
LINE
  8
0
 10
-49.0914
 20
-130.062
 11
-49.0914
 21
-127.062
  0
LINE
  8
0
 10
-49.0914
 20
-127.062
 11
-58.4471
 21
-127.062
  0
LINE
  8
0
 10
-58.4471
 20
-127.062
 11
-58.4471
 21
-130.062
  0
LINE
  8
0
 10
-58.4471
 20
-130.062
 11
-67.5529
 21
-130.062
  0
LINE
  8
0
 10
-67.5529
 20
-130.062
 11
-67.5529
 21
-127.062
  0
LINE
  8
0
 10
-67.5529
 20
-127.062
 11
-76.9087
 21
-127.062
  0
LINE
  8
0
 10
-76.9087
 20
-127.062
 11
-76.9087
 21
-130.062
  0
LINE
  8
0
 10
-76.9087
 20
-130.062
 11
-86.0144
 21
-130.062
  0
LINE
  8
0
 10
-86.0144
 20
-130.062
 11
-86.0144
 21
-127.062
  0
LINE
  8
0
 10
-86.0144
 20
-127.062
 11
-95.3702
 21
-127.062
  0
LINE
  8
0
 10
-95.3702
 20
-127.062
 11
-95.3702
 21
-130.062
  0
LINE
  8
0
 10
-95.3702
 20
-130.062
 11
-104.476
 21
-130.062
  0
LINE
  8
0
 10
-104.476
 20
-130.062
 11
-104.476
 21
-127.062
  0
LINE
  8
0
 10
-104.476
 20
-127.062
 11
-113.832
 21
-127.062
  0
LINE
  8
0
 10
-113.832
 20
-127.062
 11
-113.832
 21
-130.062
  0
LINE
  8
0
 10
-113.832
 20
-130.062
 11
-123.062
 21
-130.062
  0
LINE
  8
0
 10
-123.062
 20
-130.062
 11
-123.062
 21
-139.293
  0
LINE
  8
0
 10
-123.062
 20
-139.293
 11
-126.062
 21
-139.293
  0
LINE
  8
0
 10
-126.062
 20
-139.293
 11
-126.062
 21
-148.649
  0
LINE
  8
0
 10
-126.062
 20
-148.649
 11
-123.062
 21
-148.649
  0
LINE
  8
0
 10
-123.062
 20
-148.649
 11
-123.062
 21
-157.755
  0
LINE
  8
0
 10
-123.062
 20
-157.755
 11
-126.062
 21
-157.755
  0
LINE
  8
0
 10
-126.062
 20
-157.755
 11
-126.062
 21
-167.111
  0
LINE
  8
0
 10
-126.062
 20
-167.111
 11
-123.062
 21
-167.111
  0
LINE
  8
0
 10
-123.062
 20
-167.111
 11
-123.062
 21
-176.216
  0
LINE
  8
0
 10
-123.062
 20
-176.216
 11
-126.062
 21
-176.216
  0
LINE
  8
0
 10
-126.062
 20
-176.216
 11
-126.062
 21
-185.572
  0
LINE
  8
0
 10
-126.062
 20
-185.572
 11
-123.062
 21
-185.572
  0
LINE
  8
0
 10
-123.062
 20
-185.572
 11
-123.062
 21
-194.678
  0
LINE
  8
0
 10
-123.062
 20
-194.678
 11
-126.062
 21
-194.678
  0
LINE
  8
0
 10
-126.062
 20
-194.678
 11
-126.062
 21
-204.034
  0
LINE
  8
0
 10
-126.062
 20
-204.034
 11
-123.062
 21
-204.034
  0
LINE
  8
0
 10
-123.062
 20
-204.034
 11
-123.062
 21
-213.139
  0
LINE
  8
0
 10
-123.062
 20
-213.139
 11
-126.062
 21
-213.139
  0
LINE
  8
0
 10
-126.062
 20
-213.139
 11
-126.062
 21
-222.495
  0
LINE
  8
0
 10
-126.062
 20
-222.495
 11
-123.062
 21
-222.495
  0
LINE
  8
0
 10
-123.062
 20
-222.495
 11
-123.062
 21
-231.601
  0
LINE
  8
0
 10
-123.062
 20
-231.601
 11
-126.062
 21
-231.601
  0
LINE
  8
0
 10
-126.062
 20
-231.601
 11
-126.062
 21
-240.957
  0
LINE
  8
0
 10
-126.062
 20
-240.957
 11
-123.062
 21
-240.957
  0
LINE
  8
0
 10
-123.062
 20
-240.957
 11
-123.062
 21
-250.187
  0
LINE
  8
0
 10
-123.062
 20
-250.187
 11
-113.832
 21
-250.187
  0
LINE
  8
0
 10
-113.832
 20
-250.187
 11
-113.832
 21
-253.187
  0
LINE
  8
0
 10
-113.832
 20
-253.187
 11
-104.476
 21
-253.187
  0
LINE
  8
0
 10
-104.476
 20
-253.187
 11
-104.476
 21
-250.187
  0
LINE
  8
0
 10
-104.476
 20
-250.187
 11
-95.3702
 21
-250.187
  0
LINE
  8
0
 10
-95.3702
 20
-250.187
 11
-95.3702
 21
-253.187
  0
LINE
  8
0
 10
-95.3702
 20
-253.187
 11
-86.0144
 21
-253.187
  0
LINE
  8
0
 10
-86.0144
 20
-253.187
 11
-86.0144
 21
-250.187
  0
LINE
  8
0
 10
-86.0144
 20
-250.187
 11
-76.9086
 21
-250.187
  0
LINE
  8
0
 10
-76.9086
 20
-250.187
 11
-76.9086
 21
-253.187
  0
LINE
  8
0
 10
-76.9086
 20
-253.187
 11
-67.5529
 21
-253.187
  0
LINE
  8
0
 10
-67.5529
 20
-253.187
 11
-67.5529
 21
-250.187
  0
LINE
  8
0
 10
-67.5529
 20
-250.187
 11
-58.4471
 21
-250.188
  0
LINE
  8
0
 10
-58.4471
 20
-250.188
 11
-58.4471
 21
-253.188
  0
LINE
  8
0
 10
-58.4471
 20
-253.188
 11
-49.0913
 21
-253.188
  0
LINE
  8
0
 10
-49.0913
 20
-253.188
 11
-49.0913
 21
-250.188
  0
LINE
  8
0
 10
-97.1875
 20
-379.062
 11
-87.3125
 21
-379.062
  0
LINE
  8
0
 10
-87.3125
 20
-379.062
 11
-87.3125
 21
-382.062
  0
LINE
  8
0
 10
-87.3125
 20
-382.062
 11
-77.1875
 21
-382.062
  0
LINE
  8
0
 10
-77.1875
 20
-382.062
 11
-77.1875
 21
-379.062
  0
LINE
  8
0
 10
-77.1875
 20
-379.062
 11
-64.1875
 21
-379.062
  0
LINE
  8
0
 10
-64.1875
 20
-379.062
 11
-64.1875
 21
-369.707
  0
LINE
  8
0
 10
-64.1875
 20
-369.707
 11
-67.1875
 21
-369.707
  0
LINE
  8
0
 10
-67.1875
 20
-369.707
 11
-67.1875
 21
-360.601
  0
LINE
  8
0
 10
-67.1875
 20
-360.601
 11
-64.1875
 21
-360.601
  0
LINE
  8
0
 10
-64.1875
 20
-360.601
 11
-64.1875
 21
-351.245
  0
LINE
  8
0
 10
-64.1875
 20
-351.245
 11
-67.1875
 21
-351.245
  0
LINE
  8
0
 10
-67.1875
 20
-351.245
 11
-67.1875
 21
-342.139
  0
LINE
  8
0
 10
-67.1875
 20
-342.139
 11
-64.1875
 21
-342.139
  0
LINE
  8
0
 10
-64.1875
 20
-342.139
 11
-64.1875
 21
-332.784
  0
LINE
  8
0
 10
-64.1875
 20
-332.784
 11
-67.1875
 21
-332.784
  0
LINE
  8
0
 10
-67.1875
 20
-332.784
 11
-67.1875
 21
-323.678
  0
LINE
  8
0
 10
-67.1875
 20
-323.678
 11
-64.1875
 21
-323.678
  0
LINE
  8
0
 10
-64.1875
 20
-323.678
 11
-64.1875
 21
-314.322
  0
LINE
  8
0
 10
-64.1875
 20
-314.322
 11
-67.1875
 21
-314.322
  0
LINE
  8
0
 10
-67.1875
 20
-314.322
 11
-67.1875
 21
-305.216
  0
LINE
  8
0
 10
-67.1875
 20
-305.216
 11
-64.1875
 21
-305.216
  0
LINE
  8
0
 10
-64.1875
 20
-305.216
 11
-64.1875
 21
-295.861
  0
LINE
  8
0
 10
-64.1875
 20
-295.861
 11
-67.1875
 21
-295.861
  0
LINE
  8
0
 10
-67.1875
 20
-295.861
 11
-67.1875
 21
-286.755
  0
LINE
  8
0
 10
-67.1875
 20
-286.755
 11
-64.1875
 21
-286.755
  0
LINE
  8
0
 10
-64.1875
 20
-286.755
 11
-64.1875
 21
-277.399
  0
LINE
  8
0
 10
-64.1875
 20
-277.399
 11
-67.1875
 21
-277.399
  0
LINE
  8
0
 10
-67.1875
 20
-277.399
 11
-67.1875
 21
-268.293
  0
LINE
  8
0
 10
-67.1875
 20
-268.293
 11
-64.1875
 21
-268.293
  0
LINE
  8
0
 10
-64.1875
 20
-268.293
 11
-64.1875
 21
-258.938
  0
LINE
  8
0
 10
-64.1875
 20
-258.938
 11
-77.1875
 21
-258.938
  0
LINE
  8
0
 10
-77.1875
 20
-258.938
 11
-77.1875
 21
-255.937
  0
LINE
  8
0
 10
-77.1875
 20
-255.937
 11
-87.3125
 21
-255.937
  0
LINE
  8
0
 10
-87.3125
 20
-255.937
 11
-87.3125
 21
-258.938
  0
LINE
  8
0
 10
-87.3125
 20
-258.938
 11
-97.1875
 21
-258.938
  0
LINE
  8
0
 10
-97.1875
 20
-258.938
 11
-97.1875
 21
-255.937
  0
LINE
  8
0
 10
-97.1875
 20
-255.937
 11
-107.312
 21
-255.937
  0
LINE
  8
0
 10
-107.312
 20
-255.937
 11
-107.312
 21
-258.938
  0
LINE
  8
0
 10
-107.312
 20
-258.938
 11
-120.312
 21
-258.938
  0
LINE
  8
0
 10
-120.312
 20
-258.938
 11
-120.312
 21
-268.293
  0
LINE
  8
0
 10
-120.312
 20
-268.293
 11
-117.312
 21
-268.293
  0
LINE
  8
0
 10
-117.312
 20
-268.293
 11
-117.312
 21
-277.399
  0
LINE
  8
0
 10
-117.312
 20
-277.399
 11
-120.312
 21
-277.399
  0
LINE
  8
0
 10
-120.312
 20
-277.399
 11
-120.312
 21
-286.755
  0
LINE
  8
0
 10
-120.312
 20
-286.755
 11
-117.312
 21
-286.755
  0
LINE
  8
0
 10
-117.312
 20
-286.755
 11
-117.312
 21
-295.861
  0
LINE
  8
0
 10
-117.312
 20
-295.861
 11
-120.312
 21
-295.861
  0
LINE
  8
0
 10
-120.312
 20
-295.861
 11
-120.312
 21
-305.216
  0
LINE
  8
0
 10
-120.312
 20
-305.216
 11
-117.312
 21
-305.216
  0
LINE
  8
0
 10
-117.312
 20
-305.216
 11
-117.312
 21
-314.322
  0
LINE
  8
0
 10
-117.312
 20
-314.322
 11
-120.312
 21
-314.322
  0
LINE
  8
0
 10
-120.312
 20
-314.322
 11
-120.312
 21
-323.678
  0
LINE
  8
0
 10
-120.312
 20
-323.678
 11
-117.312
 21
-323.678
  0
LINE
  8
0
 10
-117.312
 20
-323.678
 11
-117.312
 21
-332.784
  0
LINE
  8
0
 10
-117.312
 20
-332.784
 11
-120.312
 21
-332.784
  0
LINE
  8
0
 10
-120.312
 20
-332.784
 11
-120.312
 21
-342.139
  0
LINE
  8
0
 10
-120.312
 20
-342.139
 11
-117.312
 21
-342.139
  0
LINE
  8
0
 10
-117.312
 20
-342.139
 11
-117.312
 21
-351.245
  0
LINE
  8
0
 10
-117.312
 20
-351.245
 11
-120.312
 21
-351.245
  0
LINE
  8
0
 10
-120.312
 20
-351.245
 11
-120.312
 21
-360.601
  0
LINE
  8
0
 10
-120.312
 20
-360.601
 11
-117.312
 21
-360.601
  0
LINE
  8
0
 10
-117.312
 20
-360.601
 11
-117.312
 21
-369.707
  0
LINE
  8
0
 10
-117.312
 20
-369.707
 11
-120.312
 21
-369.707
  0
LINE
  8
0
 10
-120.312
 20
-369.707
 11
-120.312
 21
-379.062
  0
LINE
  8
0
 10
-120.312
 20
-379.062
 11
-107.312
 21
-379.062
  0
LINE
  8
0
 10
-107.312
 20
-379.062
 11
-107.312
 21
-382.062
  0
LINE
  8
0
 10
-107.312
 20
-382.062
 11
-97.1875
 21
-382.062
  0
LINE
  8
0
 10
-97.1875
 20
-382.062
 11
-97.1875
 21
-379.062
  0
LINE
  8
0
 10
-50.0625
 20
-379.062
 11
-40.1875
 21
-379.062
  0
LINE
  8
0
 10
-40.1875
 20
-379.062
 11
-40.1875
 21
-382.062
  0
LINE
  8
0
 10
-40.1875
 20
-382.062
 11
-30.0625
 21
-382.062
  0
LINE
  8
0
 10
-30.0625
 20
-382.062
 11
-30.0625
 21
-379.062
  0
LINE
  8
0
 10
-30.0625
 20
-379.062
 11
-20.1875
 21
-379.062
  0
LINE
  8
0
 10
-20.1875
 20
-379.062
 11
-20.1875
 21
-382.062
  0
LINE
  8
0
 10
-20.1875
 20
-382.062
 11
-7.0625
 21
-382.062
  0
LINE
  8
0
 10
-7.0625
 20
-382.062
 11
-7.0625
 21
-369.707
  0
LINE
  8
0
 10
-7.0625
 20
-369.707
 11
-10.0625
 21
-369.707
  0
LINE
  8
0
 10
-10.0625
 20
-369.707
 11
-10.0625
 21
-360.601
  0
LINE
  8
0
 10
-10.0625
 20
-360.601
 11
-7.0625
 21
-360.601
  0
LINE
  8
0
 10
-7.0625
 20
-360.601
 11
-7.0625
 21
-351.245
  0
LINE
  8
0
 10
-7.0625
 20
-351.245
 11
-10.0625
 21
-351.245
  0
LINE
  8
0
 10
-10.0625
 20
-351.245
 11
-10.0625
 21
-342.139
  0
LINE
  8
0
 10
-10.0625
 20
-342.139
 11
-7.0625
 21
-342.139
  0
LINE
  8
0
 10
-7.0625
 20
-342.139
 11
-7.0625
 21
-332.784
  0
LINE
  8
0
 10
-7.0625
 20
-332.784
 11
-10.0625
 21
-332.784
  0
LINE
  8
0
 10
-10.0625
 20
-332.784
 11
-10.0625
 21
-323.678
  0
LINE
  8
0
 10
-10.0625
 20
-323.678
 11
-7.0625
 21
-323.678
  0
LINE
  8
0
 10
-7.0625
 20
-323.678
 11
-7.0625
 21
-314.322
  0
LINE
  8
0
 10
-7.0625
 20
-314.322
 11
-10.0625
 21
-314.322
  0
LINE
  8
0
 10
-10.0625
 20
-314.322
 11
-10.0625
 21
-305.216
  0
LINE
  8
0
 10
-10.0625
 20
-305.216
 11
-7.0625
 21
-305.216
  0
LINE
  8
0
 10
-7.0625
 20
-305.216
 11
-7.0625
 21
-295.861
  0
LINE
  8
0
 10
-7.0625
 20
-295.861
 11
-10.0625
 21
-295.861
  0
LINE
  8
0
 10
-10.0625
 20
-295.861
 11
-10.0625
 21
-286.755
  0
LINE
  8
0
 10
-10.0625
 20
-286.755
 11
-7.0625
 21
-286.755
  0
LINE
  8
0
 10
-7.0625
 20
-286.755
 11
-7.0625
 21
-277.399
  0
LINE
  8
0
 10
-7.0625
 20
-277.399
 11
-10.0625
 21
-277.399
  0
LINE
  8
0
 10
-10.0625
 20
-277.399
 11
-10.0625
 21
-268.293
  0
LINE
  8
0
 10
-10.0625
 20
-268.293
 11
-7.0625
 21
-268.293
  0
LINE
  8
0
 10
-7.0625
 20
-268.293
 11
-7.0625
 21
-255.938
  0
LINE
  8
0
 10
-7.0625
 20
-255.938
 11
-20.1875
 21
-255.938
  0
LINE
  8
0
 10
-20.1875
 20
-255.938
 11
-20.1875
 21
-258.938
  0
LINE
  8
0
 10
-20.1875
 20
-258.938
 11
-30.0625
 21
-258.938
  0
LINE
  8
0
 10
-30.0625
 20
-258.938
 11
-30.0625
 21
-255.938
  0
LINE
  8
0
 10
-30.0625
 20
-255.938
 11
-40.1875
 21
-255.938
  0
LINE
  8
0
 10
-40.1875
 20
-255.938
 11
-40.1875
 21
-258.938
  0
LINE
  8
0
 10
-40.1875
 20
-258.938
 11
-50.0625
 21
-258.938
  0
LINE
  8
0
 10
-50.0625
 20
-258.938
 11
-50.0625
 21
-255.938
  0
LINE
  8
0
 10
-50.0625
 20
-255.938
 11
-63.1875
 21
-255.938
  0
LINE
  8
0
 10
-63.1875
 20
-255.938
 11
-63.1875
 21
-268.293
  0
LINE
  8
0
 10
-63.1875
 20
-268.293
 11
-60.1875
 21
-268.293
  0
LINE
  8
0
 10
-60.1875
 20
-268.293
 11
-60.1875
 21
-277.399
  0
LINE
  8
0
 10
-60.1875
 20
-277.399
 11
-63.1875
 21
-277.399
  0
LINE
  8
0
 10
-63.1875
 20
-277.399
 11
-63.1875
 21
-286.755
  0
LINE
  8
0
 10
-63.1875
 20
-286.755
 11
-60.1875
 21
-286.755
  0
LINE
  8
0
 10
-60.1875
 20
-286.755
 11
-60.1875
 21
-295.861
  0
LINE
  8
0
 10
-60.1875
 20
-295.861
 11
-63.1875
 21
-295.861
  0
LINE
  8
0
 10
-63.1875
 20
-295.861
 11
-63.1875
 21
-305.216
  0
LINE
  8
0
 10
-63.1875
 20
-305.216
 11
-60.1875
 21
-305.216
  0
LINE
  8
0
 10
-60.1875
 20
-305.216
 11
-60.1875
 21
-314.322
  0
LINE
  8
0
 10
-60.1875
 20
-314.322
 11
-63.1875
 21
-314.322
  0
LINE
  8
0
 10
-63.1875
 20
-314.322
 11
-63.1875
 21
-323.678
  0
LINE
  8
0
 10
-63.1875
 20
-323.678
 11
-60.1875
 21
-323.678
  0
LINE
  8
0
 10
-60.1875
 20
-323.678
 11
-60.1875
 21
-332.784
  0
LINE
  8
0
 10
-60.1875
 20
-332.784
 11
-63.1875
 21
-332.784
  0
LINE
  8
0
 10
-63.1875
 20
-332.784
 11
-63.1875
 21
-342.139
  0
LINE
  8
0
 10
-63.1875
 20
-342.139
 11
-60.1875
 21
-342.139
  0
LINE
  8
0
 10
-60.1875
 20
-342.139
 11
-60.1875
 21
-351.245
  0
LINE
  8
0
 10
-60.1875
 20
-351.245
 11
-63.1875
 21
-351.245
  0
LINE
  8
0
 10
-63.1875
 20
-351.245
 11
-63.1875
 21
-360.601
  0
LINE
  8
0
 10
-63.1875
 20
-360.601
 11
-60.1875
 21
-360.601
  0
LINE
  8
0
 10
-60.1875
 20
-360.601
 11
-60.1875
 21
-369.707
  0
LINE
  8
0
 10
-60.1875
 20
-369.707
 11
-63.1875
 21
-369.707
  0
LINE
  8
0
 10
-63.1875
 20
-369.707
 11
-63.1875
 21
-382.062
  0
LINE
  8
0
 10
-63.1875
 20
-382.062
 11
-50.0625
 21
-382.062
  0
LINE
  8
0
 10
-50.0625
 20
-382.062
 11
-50.0625
 21
-379.062
  0
LINE
  8
0
 10
-97.1875
 20
-506.188
 11
-87.3125
 21
-506.188
  0
LINE
  8
0
 10
-87.3125
 20
-506.188
 11
-87.3125
 21
-509.188
  0
LINE
  8
0
 10
-87.3125
 20
-509.188
 11
-77.1875
 21
-509.188
  0
LINE
  8
0
 10
-77.1875
 20
-509.188
 11
-77.1875
 21
-506.188
  0
LINE
  8
0
 10
-77.1875
 20
-506.188
 11
-64.1875
 21
-506.188
  0
LINE
  8
0
 10
-64.1875
 20
-506.188
 11
-64.1875
 21
-496.832
  0
LINE
  8
0
 10
-64.1875
 20
-496.832
 11
-67.1875
 21
-496.832
  0
LINE
  8
0
 10
-67.1875
 20
-496.832
 11
-67.1875
 21
-487.726
  0
LINE
  8
0
 10
-67.1875
 20
-487.726
 11
-64.1875
 21
-487.726
  0
LINE
  8
0
 10
-64.1875
 20
-487.726
 11
-64.1875
 21
-478.37
  0
LINE
  8
0
 10
-64.1875
 20
-478.37
 11
-67.1875
 21
-478.37
  0
LINE
  8
0
 10
-67.1875
 20
-478.37
 11
-67.1875
 21
-469.264
  0
LINE
  8
0
 10
-67.1875
 20
-469.264
 11
-64.1875
 21
-469.264
  0
LINE
  8
0
 10
-64.1875
 20
-469.264
 11
-64.1875
 21
-459.909
  0
LINE
  8
0
 10
-64.1875
 20
-459.909
 11
-67.1875
 21
-459.909
  0
LINE
  8
0
 10
-67.1875
 20
-459.909
 11
-67.1875
 21
-450.803
  0
LINE
  8
0
 10
-67.1875
 20
-450.803
 11
-64.1875
 21
-450.803
  0
LINE
  8
0
 10
-64.1875
 20
-450.803
 11
-64.1875
 21
-441.447
  0
LINE
  8
0
 10
-64.1875
 20
-441.447
 11
-67.1875
 21
-441.447
  0
LINE
  8
0
 10
-67.1875
 20
-441.447
 11
-67.1875
 21
-432.341
  0
LINE
  8
0
 10
-67.1875
 20
-432.341
 11
-64.1875
 21
-432.341
  0
LINE
  8
0
 10
-64.1875
 20
-432.341
 11
-64.1875
 21
-422.986
  0
LINE
  8
0
 10
-64.1875
 20
-422.986
 11
-67.1875
 21
-422.986
  0
LINE
  8
0
 10
-67.1875
 20
-422.986
 11
-67.1875
 21
-413.88
  0
LINE
  8
0
 10
-67.1875
 20
-413.88
 11
-64.1875
 21
-413.88
  0
LINE
  8
0
 10
-64.1875
 20
-413.88
 11
-64.1875
 21
-404.524
  0
LINE
  8
0
 10
-64.1875
 20
-404.524
 11
-67.1875
 21
-404.524
  0
LINE
  8
0
 10
-67.1875
 20
-404.524
 11
-67.1875
 21
-395.418
  0
LINE
  8
0
 10
-67.1875
 20
-395.418
 11
-64.1875
 21
-395.418
  0
LINE
  8
0
 10
-64.1875
 20
-395.418
 11
-64.1875
 21
-386.062
  0
LINE
  8
0
 10
-64.1875
 20
-386.062
 11
-77.1875
 21
-386.062
  0
LINE
  8
0
 10
-77.1875
 20
-386.062
 11
-77.1875
 21
-383.062
  0
LINE
  8
0
 10
-77.1875
 20
-383.062
 11
-87.3125
 21
-383.062
  0
LINE
  8
0
 10
-87.3125
 20
-383.062
 11
-87.3125
 21
-386.062
  0
LINE
  8
0
 10
-87.3125
 20
-386.062
 11
-97.1875
 21
-386.062
  0
LINE
  8
0
 10
-97.1875
 20
-386.062
 11
-97.1875
 21
-383.062
  0
LINE
  8
0
 10
-97.1875
 20
-383.062
 11
-107.312
 21
-383.062
  0
LINE
  8
0
 10
-107.312
 20
-383.062
 11
-107.312
 21
-386.062
  0
LINE
  8
0
 10
-107.312
 20
-386.062
 11
-120.312
 21
-386.062
  0
LINE
  8
0
 10
-120.312
 20
-386.062
 11
-120.312
 21
-395.418
  0
LINE
  8
0
 10
-120.312
 20
-395.418
 11
-117.312
 21
-395.418
  0
LINE
  8
0
 10
-117.312
 20
-395.418
 11
-117.312
 21
-404.524
  0
LINE
  8
0
 10
-117.312
 20
-404.524
 11
-120.312
 21
-404.524
  0
LINE
  8
0
 10
-120.312
 20
-404.524
 11
-120.312
 21
-413.88
  0
LINE
  8
0
 10
-120.312
 20
-413.88
 11
-117.312
 21
-413.88
  0
LINE
  8
0
 10
-117.312
 20
-413.88
 11
-117.312
 21
-422.986
  0
LINE
  8
0
 10
-117.312
 20
-422.986
 11
-120.312
 21
-422.986
  0
LINE
  8
0
 10
-120.312
 20
-422.986
 11
-120.312
 21
-432.341
  0
LINE
  8
0
 10
-120.312
 20
-432.341
 11
-117.312
 21
-432.341
  0
LINE
  8
0
 10
-117.312
 20
-432.341
 11
-117.312
 21
-441.447
  0
LINE
  8
0
 10
-117.312
 20
-441.447
 11
-120.312
 21
-441.447
  0
LINE
  8
0
 10
-120.312
 20
-441.447
 11
-120.312
 21
-450.803
  0
LINE
  8
0
 10
-120.312
 20
-450.803
 11
-117.312
 21
-450.803
  0
LINE
  8
0
 10
-117.312
 20
-450.803
 11
-117.312
 21
-459.909
  0
LINE
  8
0
 10
-117.312
 20
-459.909
 11
-120.312
 21
-459.909
  0
LINE
  8
0
 10
-120.312
 20
-459.909
 11
-120.312
 21
-469.264
  0
LINE
  8
0
 10
-120.312
 20
-469.264
 11
-117.312
 21
-469.264
  0
LINE
  8
0
 10
-117.312
 20
-469.264
 11
-117.312
 21
-478.37
  0
LINE
  8
0
 10
-117.312
 20
-478.37
 11
-120.312
 21
-478.37
  0
LINE
  8
0
 10
-120.312
 20
-478.37
 11
-120.312
 21
-487.726
  0
LINE
  8
0
 10
-120.312
 20
-487.726
 11
-117.312
 21
-487.726
  0
LINE
  8
0
 10
-117.312
 20
-487.726
 11
-117.312
 21
-496.832
  0
LINE
  8
0
 10
-117.312
 20
-496.832
 11
-120.312
 21
-496.832
  0
LINE
  8
0
 10
-120.312
 20
-496.832
 11
-120.312
 21
-506.188
  0
LINE
  8
0
 10
-120.312
 20
-506.188
 11
-107.312
 21
-506.188
  0
LINE
  8
0
 10
-107.312
 20
-506.188
 11
-107.312
 21
-509.188
  0
LINE
  8
0
 10
-107.312
 20
-509.188
 11
-97.1875
 21
-509.188
  0
LINE
  8
0
 10
-97.1875
 20
-509.188
 11
-97.1875
 21
-506.188
  0
LINE
  8
0
 10
-50.0625
 20
-506.188
 11
-40.1875
 21
-506.188
  0
LINE
  8
0
 10
-40.1875
 20
-506.188
 11
-40.1875
 21
-509.188
  0
LINE
  8
0
 10
-40.1875
 20
-509.188
 11
-30.0625
 21
-509.188
  0
LINE
  8
0
 10
-30.0625
 20
-509.188
 11
-30.0625
 21
-506.188
  0
LINE
  8
0
 10
-30.0625
 20
-506.188
 11
-20.1875
 21
-506.188
  0
LINE
  8
0
 10
-20.1875
 20
-506.188
 11
-20.1875
 21
-509.188
  0
LINE
  8
0
 10
-20.1875
 20
-509.188
 11
-7.0625
 21
-509.188
  0
LINE
  8
0
 10
-7.0625
 20
-509.188
 11
-7.0625
 21
-496.832
  0
LINE
  8
0
 10
-7.0625
 20
-496.832
 11
-10.0625
 21
-496.832
  0
LINE
  8
0
 10
-10.0625
 20
-496.832
 11
-10.0625
 21
-487.726
  0
LINE
  8
0
 10
-10.0625
 20
-487.726
 11
-7.0625
 21
-487.726
  0
LINE
  8
0
 10
-7.0625
 20
-487.726
 11
-7.0625
 21
-478.37
  0
LINE
  8
0
 10
-7.0625
 20
-478.37
 11
-10.0625
 21
-478.37
  0
LINE
  8
0
 10
-10.0625
 20
-478.37
 11
-10.0625
 21
-469.264
  0
LINE
  8
0
 10
-10.0625
 20
-469.264
 11
-7.0625
 21
-469.264
  0
LINE
  8
0
 10
-7.0625
 20
-469.264
 11
-7.0625
 21
-459.909
  0
LINE
  8
0
 10
-7.0625
 20
-459.909
 11
-10.0625
 21
-459.909
  0
LINE
  8
0
 10
-10.0625
 20
-459.909
 11
-10.0625
 21
-450.803
  0
LINE
  8
0
 10
-10.0625
 20
-450.803
 11
-7.0625
 21
-450.803
  0
LINE
  8
0
 10
-7.0625
 20
-450.803
 11
-7.0625
 21
-441.447
  0
LINE
  8
0
 10
-7.0625
 20
-441.447
 11
-10.0625
 21
-441.447
  0
LINE
  8
0
 10
-10.0625
 20
-441.447
 11
-10.0625
 21
-432.341
  0
LINE
  8
0
 10
-10.0625
 20
-432.341
 11
-7.0625
 21
-432.341
  0
LINE
  8
0
 10
-7.0625
 20
-432.341
 11
-7.0625
 21
-422.986
  0
LINE
  8
0
 10
-7.0625
 20
-422.986
 11
-10.0625
 21
-422.986
  0
LINE
  8
0
 10
-10.0625
 20
-422.986
 11
-10.0625
 21
-413.88
  0
LINE
  8
0
 10
-10.0625
 20
-413.88
 11
-7.0625
 21
-413.88
  0
LINE
  8
0
 10
-7.0625
 20
-413.88
 11
-7.0625
 21
-404.524
  0
LINE
  8
0
 10
-7.0625
 20
-404.524
 11
-10.0625
 21
-404.524
  0
LINE
  8
0
 10
-10.0625
 20
-404.524
 11
-10.0625
 21
-395.418
  0
LINE
  8
0
 10
-10.0625
 20
-395.418
 11
-7.0625
 21
-395.418
  0
LINE
  8
0
 10
-7.0625
 20
-395.418
 11
-7.0625
 21
-383.062
  0
LINE
  8
0
 10
-7.0625
 20
-383.062
 11
-20.1875
 21
-383.062
  0
LINE
  8
0
 10
-20.1875
 20
-383.062
 11
-20.1875
 21
-386.062
  0
LINE
  8
0
 10
-20.1875
 20
-386.062
 11
-30.0625
 21
-386.062
  0
LINE
  8
0
 10
-30.0625
 20
-386.062
 11
-30.0625
 21
-383.062
  0
LINE
  8
0
 10
-30.0625
 20
-383.062
 11
-40.1875
 21
-383.062
  0
LINE
  8
0
 10
-40.1875
 20
-383.062
 11
-40.1875
 21
-386.062
  0
LINE
  8
0
 10
-40.1875
 20
-386.062
 11
-50.0625
 21
-386.062
  0
LINE
  8
0
 10
-50.0625
 20
-386.062
 11
-50.0625
 21
-383.062
  0
LINE
  8
0
 10
-50.0625
 20
-383.062
 11
-63.1875
 21
-383.062
  0
LINE
  8
0
 10
-63.1875
 20
-383.062
 11
-63.1875
 21
-395.418
  0
LINE
  8
0
 10
-63.1875
 20
-395.418
 11
-60.1875
 21
-395.418
  0
LINE
  8
0
 10
-60.1875
 20
-395.418
 11
-60.1875
 21
-404.524
  0
LINE
  8
0
 10
-60.1875
 20
-404.524
 11
-63.1875
 21
-404.524
  0
LINE
  8
0
 10
-63.1875
 20
-404.524
 11
-63.1875
 21
-413.88
  0
LINE
  8
0
 10
-63.1875
 20
-413.88
 11
-60.1875
 21
-413.88
  0
LINE
  8
0
 10
-60.1875
 20
-413.88
 11
-60.1875
 21
-422.986
  0
LINE
  8
0
 10
-60.1875
 20
-422.986
 11
-63.1875
 21
-422.986
  0
LINE
  8
0
 10
-63.1875
 20
-422.986
 11
-63.1875
 21
-432.341
  0
LINE
  8
0
 10
-63.1875
 20
-432.341
 11
-60.1875
 21
-432.341
  0
LINE
  8
0
 10
-60.1875
 20
-432.341
 11
-60.1875
 21
-441.447
  0
LINE
  8
0
 10
-60.1875
 20
-441.447
 11
-63.1875
 21
-441.447
  0
LINE
  8
0
 10
-63.1875
 20
-441.447
 11
-63.1875
 21
-450.803
  0
LINE
  8
0
 10
-63.1875
 20
-450.803
 11
-60.1875
 21
-450.803
  0
LINE
  8
0
 10
-60.1875
 20
-450.803
 11
-60.1875
 21
-459.909
  0
LINE
  8
0
 10
-60.1875
 20
-459.909
 11
-63.1875
 21
-459.909
  0
LINE
  8
0
 10
-63.1875
 20
-459.909
 11
-63.1875
 21
-469.264
  0
LINE
  8
0
 10
-63.1875
 20
-469.264
 11
-60.1875
 21
-469.264
  0
LINE
  8
0
 10
-60.1875
 20
-469.264
 11
-60.1875
 21
-478.37
  0
LINE
  8
0
 10
-60.1875
 20
-478.37
 11
-63.1875
 21
-478.37
  0
LINE
  8
0
 10
-63.1875
 20
-478.37
 11
-63.1875
 21
-487.726
  0
LINE
  8
0
 10
-63.1875
 20
-487.726
 11
-60.1875
 21
-487.726
  0
LINE
  8
0
 10
-60.1875
 20
-487.726
 11
-60.1875
 21
-496.832
  0
LINE
  8
0
 10
-60.1875
 20
-496.832
 11
-63.1875
 21
-496.832
  0
LINE
  8
0
 10
-63.1875
 20
-496.832
 11
-63.1875
 21
-509.188
  0
LINE
  8
0
 10
-63.1875
 20
-509.188
 11
-50.0625
 21
-509.188
  0
LINE
  8
0
 10
-50.0625
 20
-509.188
 11
-50.0625
 21
-506.188
  0
ENDSEC
  0
SECTION
  2
OBJECTS
  0
DICTIONARY
  0
ENDSEC
  0
EOF
